<?xml version="1.0" ?><svg viewBox="0 0 22.494 22.495" xmlns="http://www.w3.org/2000/svg"><g data-name="Layer 2" id="Layer_2"><g data-name="Layer 1" id="Layer_1-2"><path d="M21.245,2.273H19.087V.341a.343.343,0,0,0-.53-.283L16.7,1.3,14.845.058a.343.343,0,0,0-.53.283V2.273H1.25A1.251,1.251,0,0,0,0,3.522V21.245A1.252,1.252,0,0,0,1.25,22.5h20a1.251,1.251,0,0,0,1.249-1.25V3.522A1.25,1.25,0,0,0,21.245,2.273ZM15,.978l1.515,1.01a.34.34,0,0,0,.378,0L18.405.978V5.909H15ZM19.541,6.59V8.179h-5.68V6.59Zm2.272,14.655a.569.569,0,0,1-.568.568H1.25a.569.569,0,0,1-.569-.568V17.951H21.813Zm0-3.976H.681V3.522a.569.569,0,0,1,.569-.568H14.315V5.909c-.337.044-1.129-.177-1.136.341V8.52a.341.341,0,0,0,.341.341h6.362a.341.341,0,0,0,.341-.341V6.25c-.006-.518-.8-.3-1.136-.341V2.954h2.158a.569.569,0,0,1,.568.568ZM13.52,19.541h6.361a.341.341,0,0,1,0,.682H13.52A.341.341,0,0,1,13.52,19.541Zm-10.907,0H8.975a.341.341,0,0,1,0,.682H2.613A.341.341,0,0,1,2.613,19.541Zm8.634,0a.341.341,0,0,1,0,.682A.341.341,0,0,1,11.247,19.541Zm-8.4-3.964c-.306.316-.8-.173-.481-.482S3.18,15.273,2.851,15.577Zm10.553.1a.341.341,0,0,1,0-.682A.341.341,0,0,1,13.4,15.677Zm2.158,0a.341.341,0,0,1,0-.682A.341.341,0,0,1,15.562,15.677Zm-4.317,0a.341.341,0,0,1,0-.682A.341.341,0,0,1,11.245,15.677Zm-2.159,0a.341.341,0,0,1,0-.682A.341.341,0,0,1,9.086,15.677Zm-4.317,0a.341.341,0,0,1,0-.682A.341.341,0,0,1,4.769,15.677Zm2.159,0a.341.341,0,0,1,0-.682A.341.341,0,0,1,6.928,15.677Zm10.793,0a.341.341,0,0,1,0-.682A.341.341,0,0,1,17.721,15.677Zm2.4-.1c-.3.317-.8-.173-.482-.482S20.444,15.272,20.12,15.577ZM2.851,13.3c-.305.318-.8-.172-.481-.481S3.179,13,2.851,13.3Zm6.235.1a.341.341,0,0,1,0-.681A.341.341,0,0,1,9.086,13.4Zm-2.158,0a.341.341,0,0,1,0-.681A.341.341,0,0,1,6.928,13.4Zm10.793,0a.341.341,0,0,1,0-.681A.341.341,0,0,1,17.721,13.4Zm-12.952,0a.341.341,0,0,1,0-.681A.341.341,0,0,1,4.769,13.4Zm10.793,0a.341.341,0,0,1,0-.681A.341.341,0,0,1,15.562,13.4Zm-2.158,0a.341.341,0,0,1,0-.681A.341.341,0,0,1,13.4,13.4Zm-2.159,0a.341.341,0,0,1,0-.681A.341.341,0,0,1,11.245,13.4Zm8.875-.1c-.3.318-.8-.172-.482-.481S20.443,13,20.12,13.3ZM2.856,11.032c-.31.316-.8-.169-.486-.482S3.171,10.725,2.856,11.032Zm12.706.1a.341.341,0,0,1,0-.681A.341.341,0,0,1,15.562,11.132Zm-2.158,0a.341.341,0,0,1,0-.681A.341.341,0,0,1,13.4,11.132Zm4.317,0a.341.341,0,0,1,0-.681A.341.341,0,0,1,17.721,11.132Zm-12.952,0a.341.341,0,0,1,0-.681A.341.341,0,0,1,4.769,11.132Zm6.476,0a.341.341,0,0,1,0-.681A.341.341,0,0,1,11.245,11.132Zm-4.317,0a.341.341,0,0,1,0-.681A.341.341,0,0,1,6.928,11.132Zm2.158,0a.341.341,0,0,1,0-.681A.341.341,0,0,1,9.086,11.132Zm11.034-.1c-.309.318-.8-.175-.482-.482S20.443,10.728,20.12,11.032ZM11.247,4.545H2.613a.341.341,0,0,0-.341.341V8.52a.341.341,0,0,0,.341.341h8.634a.341.341,0,0,0,.341-.341V4.886A.341.341,0,0,0,11.247,4.545Zm-.341,3.634H2.953V5.227h7.953Z" data-name="order checkout" id="order_checkout"/></g></g></svg>